<?xml version="1.0" encoding="UTF-8" standalone="no"?>
<!DOCTYPE svg PUBLIC "-//W3C//DTD SVG 1.1//EN" "http://www.w3.org/Graphics/SVG/1.1/DTD/svg11.dtd">
<svg width="100%" height="100%" viewBox="0 0 1920 167" version="1.1" xmlns="http://www.w3.org/2000/svg" xmlns:xlink="http://www.w3.org/1999/xlink" xml:space="preserve" xmlns:serif="http://www.serif.com/" style="fill-rule:evenodd;clip-rule:evenodd;stroke-linejoin:round;stroke-miterlimit:2;">
    <g transform="matrix(0.541756,0,0,0.541756,-144.687,-117.237)">
        <g transform="matrix(407.126,0,0,407.126,249.767,517.674)">
            <path d="M0.526,-0.618L0.148,-0.618L0.148,-0.396L0.496,-0.396L0.496,-0.298L0.148,-0.298L0.148,-0L0.043,-0L0.043,-0.715L0.526,-0.715L0.526,-0.618Z" style="fill-rule:nonzero;"/>
        </g>
        <g transform="matrix(407.126,0,0,407.126,472.364,517.674)">
            <path d="M0.141,-0L0.04,-0L0.04,-0.551L0.141,-0.551L0.141,-0.376C0.148,-0.403 0.157,-0.428 0.169,-0.449C0.181,-0.471 0.196,-0.489 0.214,-0.505C0.232,-0.52 0.252,-0.531 0.276,-0.539C0.299,-0.547 0.326,-0.551 0.355,-0.551L0.38,-0.551L0.38,-0.455L0.355,-0.455C0.315,-0.455 0.281,-0.451 0.254,-0.444C0.226,-0.436 0.204,-0.425 0.188,-0.41C0.171,-0.395 0.159,-0.376 0.152,-0.353C0.145,-0.331 0.141,-0.304 0.141,-0.273L0.141,-0Z" style="fill-rule:nonzero;"/>
        </g>
        <g transform="matrix(407.126,0,0,407.126,628.598,517.674)">
            <path d="M0.041,-0.359C0.041,-0.391 0.047,-0.42 0.059,-0.445C0.07,-0.47 0.087,-0.492 0.109,-0.51C0.131,-0.528 0.157,-0.542 0.188,-0.552C0.219,-0.561 0.254,-0.566 0.292,-0.566C0.333,-0.566 0.37,-0.561 0.402,-0.55C0.434,-0.539 0.462,-0.523 0.484,-0.503C0.507,-0.482 0.524,-0.457 0.536,-0.428C0.548,-0.398 0.554,-0.365 0.554,-0.327L0.554,-0L0.453,-0L0.453,-0.148C0.446,-0.123 0.436,-0.1 0.422,-0.08C0.409,-0.06 0.392,-0.043 0.373,-0.029C0.353,-0.014 0.331,-0.004 0.307,0.004C0.282,0.011 0.255,0.015 0.226,0.015C0.196,0.015 0.168,0.011 0.144,0.003C0.119,-0.005 0.098,-0.016 0.08,-0.031C0.063,-0.045 0.049,-0.063 0.039,-0.083C0.03,-0.103 0.025,-0.126 0.025,-0.151C0.025,-0.176 0.03,-0.199 0.04,-0.219C0.05,-0.239 0.064,-0.257 0.083,-0.271C0.101,-0.285 0.124,-0.296 0.15,-0.303C0.177,-0.311 0.207,-0.314 0.24,-0.314L0.453,-0.314L0.453,-0.327C0.453,-0.35 0.449,-0.37 0.441,-0.388C0.434,-0.407 0.423,-0.422 0.409,-0.435C0.395,-0.448 0.378,-0.457 0.358,-0.464C0.338,-0.471 0.316,-0.475 0.291,-0.475C0.265,-0.475 0.243,-0.472 0.224,-0.466C0.206,-0.461 0.19,-0.453 0.178,-0.443C0.166,-0.433 0.157,-0.421 0.151,-0.407C0.145,-0.392 0.143,-0.377 0.143,-0.359L0.041,-0.359ZM0.239,-0.229C0.202,-0.229 0.173,-0.223 0.154,-0.21C0.135,-0.198 0.125,-0.179 0.125,-0.155C0.125,-0.142 0.128,-0.13 0.133,-0.12C0.139,-0.11 0.147,-0.101 0.158,-0.094C0.169,-0.087 0.182,-0.082 0.198,-0.079C0.214,-0.075 0.232,-0.073 0.253,-0.073C0.282,-0.073 0.309,-0.077 0.334,-0.084C0.358,-0.091 0.379,-0.1 0.397,-0.113C0.414,-0.125 0.428,-0.14 0.438,-0.157C0.448,-0.175 0.453,-0.194 0.453,-0.214L0.453,-0.229L0.239,-0.229Z" style="fill-rule:nonzero;"/>
        </g>
        <g transform="matrix(407.126,0,0,407.126,869.413,517.674)">
            <path d="M0.141,-0L0.04,-0L0.04,-0.551L0.141,-0.551L0.141,-0.392C0.148,-0.419 0.158,-0.444 0.17,-0.465C0.183,-0.487 0.198,-0.505 0.215,-0.52C0.233,-0.535 0.252,-0.546 0.274,-0.554C0.296,-0.562 0.32,-0.566 0.346,-0.566C0.377,-0.566 0.405,-0.56 0.43,-0.549C0.455,-0.537 0.476,-0.52 0.493,-0.497C0.511,-0.475 0.524,-0.448 0.533,-0.416C0.542,-0.384 0.547,-0.348 0.547,-0.308L0.547,-0L0.445,-0L0.445,-0.308C0.445,-0.364 0.434,-0.405 0.41,-0.433C0.387,-0.461 0.351,-0.475 0.304,-0.475C0.278,-0.475 0.255,-0.471 0.235,-0.463C0.215,-0.455 0.198,-0.443 0.184,-0.428C0.17,-0.413 0.16,-0.395 0.152,-0.373C0.145,-0.351 0.141,-0.326 0.141,-0.298L0.141,-0Z" style="fill-rule:nonzero;"/>
        </g>
        <g transform="matrix(407.126,0,0,407.126,1107.17,517.674)">
            <path d="M0.129,-0.276C0.129,-0.245 0.133,-0.217 0.14,-0.193C0.148,-0.168 0.159,-0.147 0.174,-0.13C0.188,-0.113 0.206,-0.099 0.227,-0.09C0.248,-0.081 0.271,-0.077 0.297,-0.077C0.32,-0.077 0.34,-0.08 0.358,-0.087C0.375,-0.094 0.39,-0.103 0.403,-0.115C0.416,-0.127 0.426,-0.141 0.434,-0.157C0.442,-0.172 0.447,-0.19 0.451,-0.208L0.552,-0.208C0.549,-0.187 0.544,-0.167 0.538,-0.148C0.531,-0.129 0.522,-0.111 0.511,-0.094C0.501,-0.078 0.488,-0.063 0.474,-0.049C0.459,-0.036 0.443,-0.024 0.425,-0.015C0.407,-0.005 0.388,0.002 0.366,0.007C0.345,0.012 0.322,0.015 0.297,0.015C0.27,0.015 0.245,0.012 0.221,0.006C0.197,-0.001 0.175,-0.01 0.155,-0.022C0.135,-0.034 0.118,-0.048 0.102,-0.065C0.086,-0.082 0.073,-0.101 0.062,-0.123C0.05,-0.144 0.042,-0.168 0.036,-0.194C0.03,-0.219 0.028,-0.247 0.028,-0.276C0.028,-0.305 0.03,-0.332 0.036,-0.358C0.042,-0.383 0.05,-0.407 0.062,-0.429C0.073,-0.45 0.086,-0.469 0.102,-0.486C0.118,-0.503 0.135,-0.518 0.155,-0.53C0.175,-0.542 0.197,-0.551 0.221,-0.557C0.245,-0.563 0.27,-0.566 0.297,-0.566C0.322,-0.566 0.345,-0.564 0.366,-0.559C0.388,-0.553 0.407,-0.546 0.425,-0.536C0.443,-0.527 0.459,-0.515 0.474,-0.502C0.488,-0.488 0.501,-0.474 0.511,-0.457C0.522,-0.441 0.531,-0.423 0.538,-0.404C0.544,-0.384 0.549,-0.364 0.552,-0.344L0.451,-0.344C0.447,-0.362 0.442,-0.379 0.434,-0.395C0.426,-0.411 0.416,-0.424 0.403,-0.436C0.391,-0.448 0.375,-0.458 0.358,-0.465C0.34,-0.471 0.32,-0.475 0.297,-0.475C0.271,-0.475 0.248,-0.47 0.227,-0.461C0.206,-0.452 0.188,-0.439 0.174,-0.422C0.159,-0.404 0.148,-0.383 0.14,-0.359C0.133,-0.334 0.129,-0.307 0.129,-0.276Z" style="fill-rule:nonzero;"/>
        </g>
        <g transform="matrix(407.126,0,0,407.126,1343,517.674)">
            <path d="M0.551,-0.183C0.544,-0.152 0.533,-0.124 0.518,-0.1C0.503,-0.075 0.484,-0.055 0.463,-0.038C0.441,-0.021 0.416,-0.008 0.388,0.002C0.361,0.011 0.331,0.015 0.298,0.015C0.271,0.015 0.246,0.012 0.222,0.006C0.198,-0.001 0.176,-0.01 0.156,-0.022C0.136,-0.034 0.118,-0.048 0.102,-0.065C0.086,-0.082 0.073,-0.102 0.062,-0.123C0.05,-0.145 0.042,-0.169 0.036,-0.194C0.03,-0.22 0.028,-0.248 0.028,-0.277C0.028,-0.306 0.03,-0.333 0.036,-0.358C0.042,-0.384 0.05,-0.407 0.061,-0.429C0.072,-0.45 0.086,-0.47 0.101,-0.487C0.117,-0.503 0.135,-0.518 0.155,-0.53C0.174,-0.542 0.196,-0.551 0.22,-0.557C0.243,-0.563 0.269,-0.566 0.295,-0.566C0.335,-0.566 0.37,-0.559 0.402,-0.546C0.434,-0.532 0.461,-0.513 0.484,-0.488C0.506,-0.463 0.524,-0.433 0.536,-0.397C0.548,-0.362 0.554,-0.322 0.554,-0.278C0.554,-0.272 0.554,-0.265 0.554,-0.259C0.553,-0.253 0.553,-0.246 0.552,-0.239L0.131,-0.239C0.134,-0.214 0.14,-0.191 0.149,-0.171C0.158,-0.151 0.17,-0.134 0.184,-0.12C0.199,-0.106 0.216,-0.095 0.236,-0.088C0.255,-0.08 0.277,-0.077 0.301,-0.077C0.338,-0.077 0.368,-0.085 0.393,-0.103C0.418,-0.121 0.437,-0.147 0.45,-0.183L0.551,-0.183ZM0.449,-0.326C0.446,-0.35 0.44,-0.371 0.432,-0.39C0.423,-0.408 0.413,-0.424 0.4,-0.436C0.387,-0.449 0.372,-0.458 0.354,-0.465C0.337,-0.472 0.317,-0.475 0.296,-0.475C0.274,-0.475 0.254,-0.471 0.235,-0.465C0.217,-0.458 0.201,-0.448 0.187,-0.435C0.173,-0.423 0.161,-0.407 0.152,-0.389C0.143,-0.37 0.137,-0.349 0.133,-0.326L0.449,-0.326Z" style="fill-rule:nonzero;"/>
        </g>
        <g transform="matrix(407.126,0,0,407.126,1579.75,517.674)">
            <path d="M0.264,-0.566C0.302,-0.566 0.335,-0.562 0.364,-0.554C0.393,-0.545 0.418,-0.533 0.438,-0.517C0.458,-0.501 0.473,-0.482 0.484,-0.46C0.494,-0.437 0.5,-0.412 0.5,-0.385L0.401,-0.385C0.401,-0.399 0.398,-0.411 0.392,-0.423C0.386,-0.435 0.377,-0.445 0.365,-0.453C0.354,-0.461 0.339,-0.468 0.323,-0.472C0.306,-0.476 0.286,-0.479 0.264,-0.479C0.244,-0.479 0.226,-0.477 0.209,-0.473C0.193,-0.47 0.179,-0.464 0.167,-0.458C0.155,-0.451 0.146,-0.443 0.14,-0.433C0.133,-0.424 0.13,-0.413 0.13,-0.402C0.13,-0.393 0.132,-0.386 0.135,-0.379C0.139,-0.373 0.144,-0.367 0.15,-0.362C0.157,-0.357 0.164,-0.353 0.173,-0.35C0.181,-0.346 0.19,-0.343 0.2,-0.341C0.21,-0.338 0.22,-0.336 0.23,-0.334C0.241,-0.333 0.251,-0.331 0.261,-0.329L0.298,-0.324C0.313,-0.321 0.329,-0.318 0.346,-0.315C0.363,-0.312 0.38,-0.308 0.397,-0.303C0.413,-0.298 0.429,-0.292 0.444,-0.284C0.458,-0.276 0.471,-0.266 0.483,-0.255C0.494,-0.243 0.503,-0.229 0.51,-0.213C0.516,-0.197 0.52,-0.177 0.52,-0.155C0.52,-0.128 0.514,-0.104 0.504,-0.083C0.493,-0.062 0.477,-0.044 0.457,-0.029C0.436,-0.015 0.41,-0.004 0.38,0.004C0.349,0.011 0.313,0.015 0.273,0.015C0.231,0.015 0.195,0.011 0.163,0.003C0.132,-0.005 0.106,-0.017 0.085,-0.033C0.064,-0.049 0.048,-0.069 0.037,-0.092C0.027,-0.115 0.021,-0.141 0.021,-0.171L0.12,-0.171C0.12,-0.155 0.123,-0.141 0.129,-0.129C0.135,-0.117 0.145,-0.107 0.158,-0.098C0.17,-0.09 0.186,-0.083 0.205,-0.079C0.224,-0.075 0.247,-0.073 0.273,-0.073C0.297,-0.073 0.317,-0.074 0.336,-0.078C0.354,-0.081 0.37,-0.086 0.382,-0.093C0.395,-0.1 0.405,-0.108 0.411,-0.118C0.418,-0.128 0.421,-0.14 0.421,-0.153C0.421,-0.163 0.419,-0.171 0.415,-0.179C0.411,-0.186 0.406,-0.193 0.399,-0.199C0.393,-0.204 0.385,-0.209 0.375,-0.213C0.366,-0.217 0.356,-0.221 0.345,-0.224C0.334,-0.227 0.323,-0.23 0.311,-0.232C0.299,-0.234 0.288,-0.236 0.276,-0.238L0.239,-0.245C0.225,-0.247 0.21,-0.249 0.195,-0.253C0.179,-0.256 0.163,-0.26 0.148,-0.264C0.132,-0.269 0.118,-0.275 0.104,-0.282C0.09,-0.29 0.077,-0.299 0.066,-0.309C0.056,-0.32 0.047,-0.333 0.041,-0.348C0.034,-0.362 0.031,-0.38 0.031,-0.4C0.031,-0.425 0.036,-0.448 0.047,-0.469C0.058,-0.489 0.073,-0.507 0.093,-0.521C0.113,-0.536 0.138,-0.547 0.167,-0.555C0.195,-0.562 0.228,-0.566 0.264,-0.566Z" style="fill-rule:nonzero;"/>
        </g>
        <g transform="matrix(407.126,0,0,407.126,1799.59,517.674)">
            <path d="M0.129,-0.276C0.129,-0.245 0.133,-0.217 0.14,-0.193C0.148,-0.168 0.159,-0.147 0.174,-0.13C0.188,-0.113 0.206,-0.099 0.227,-0.09C0.248,-0.081 0.271,-0.077 0.297,-0.077C0.32,-0.077 0.34,-0.08 0.358,-0.087C0.375,-0.094 0.39,-0.103 0.403,-0.115C0.416,-0.127 0.426,-0.141 0.434,-0.157C0.442,-0.172 0.447,-0.19 0.451,-0.208L0.552,-0.208C0.549,-0.187 0.544,-0.167 0.538,-0.148C0.531,-0.129 0.522,-0.111 0.511,-0.094C0.501,-0.078 0.488,-0.063 0.474,-0.049C0.459,-0.036 0.443,-0.024 0.425,-0.015C0.407,-0.005 0.388,0.002 0.366,0.007C0.345,0.012 0.322,0.015 0.297,0.015C0.27,0.015 0.245,0.012 0.221,0.006C0.197,-0.001 0.175,-0.01 0.155,-0.022C0.135,-0.034 0.118,-0.048 0.102,-0.065C0.086,-0.082 0.073,-0.101 0.062,-0.123C0.05,-0.144 0.042,-0.168 0.036,-0.194C0.03,-0.219 0.028,-0.247 0.028,-0.276C0.028,-0.305 0.03,-0.332 0.036,-0.358C0.042,-0.383 0.05,-0.407 0.062,-0.429C0.073,-0.45 0.086,-0.469 0.102,-0.486C0.118,-0.503 0.135,-0.518 0.155,-0.53C0.175,-0.542 0.197,-0.551 0.221,-0.557C0.245,-0.563 0.27,-0.566 0.297,-0.566C0.322,-0.566 0.345,-0.564 0.366,-0.559C0.388,-0.553 0.407,-0.546 0.425,-0.536C0.443,-0.527 0.459,-0.515 0.474,-0.502C0.488,-0.488 0.501,-0.474 0.511,-0.457C0.522,-0.441 0.531,-0.423 0.538,-0.404C0.544,-0.384 0.549,-0.364 0.552,-0.344L0.451,-0.344C0.447,-0.362 0.442,-0.379 0.434,-0.395C0.426,-0.411 0.416,-0.424 0.403,-0.436C0.391,-0.448 0.375,-0.458 0.358,-0.465C0.34,-0.471 0.32,-0.475 0.297,-0.475C0.271,-0.475 0.248,-0.47 0.227,-0.461C0.206,-0.452 0.188,-0.439 0.174,-0.422C0.159,-0.404 0.148,-0.383 0.14,-0.359C0.133,-0.334 0.129,-0.307 0.129,-0.276Z" style="fill-rule:nonzero;"/>
        </g>
        <g transform="matrix(407.126,0,0,407.126,2035.42,517.674)">
            <path d="M0.028,-0.276C0.028,-0.305 0.03,-0.332 0.036,-0.358C0.042,-0.383 0.05,-0.407 0.062,-0.429C0.073,-0.45 0.086,-0.469 0.102,-0.486C0.118,-0.503 0.135,-0.518 0.155,-0.53C0.175,-0.542 0.197,-0.551 0.221,-0.557C0.245,-0.563 0.27,-0.566 0.297,-0.566C0.324,-0.566 0.349,-0.563 0.373,-0.557C0.397,-0.551 0.419,-0.542 0.439,-0.53C0.459,-0.518 0.476,-0.503 0.492,-0.486C0.508,-0.469 0.522,-0.45 0.533,-0.429C0.544,-0.407 0.552,-0.383 0.558,-0.358C0.564,-0.332 0.567,-0.305 0.567,-0.276C0.567,-0.247 0.564,-0.219 0.558,-0.194C0.552,-0.168 0.544,-0.144 0.533,-0.123C0.522,-0.101 0.508,-0.082 0.492,-0.065C0.476,-0.048 0.459,-0.034 0.439,-0.022C0.419,-0.01 0.397,-0.001 0.373,0.006C0.349,0.012 0.324,0.015 0.297,0.015C0.27,0.015 0.245,0.012 0.221,0.006C0.197,-0.001 0.175,-0.01 0.155,-0.022C0.135,-0.034 0.118,-0.048 0.102,-0.065C0.086,-0.082 0.073,-0.101 0.062,-0.123C0.05,-0.144 0.042,-0.168 0.036,-0.194C0.03,-0.219 0.028,-0.247 0.028,-0.276ZM0.129,-0.276C0.129,-0.245 0.133,-0.217 0.14,-0.193C0.148,-0.168 0.159,-0.147 0.174,-0.13C0.188,-0.113 0.206,-0.099 0.227,-0.09C0.248,-0.081 0.271,-0.077 0.297,-0.077C0.323,-0.077 0.347,-0.081 0.367,-0.09C0.388,-0.099 0.406,-0.113 0.42,-0.13C0.435,-0.147 0.446,-0.168 0.454,-0.193C0.461,-0.217 0.465,-0.245 0.465,-0.276C0.465,-0.307 0.461,-0.334 0.454,-0.359C0.446,-0.383 0.435,-0.404 0.42,-0.422C0.406,-0.439 0.388,-0.452 0.367,-0.461C0.347,-0.47 0.323,-0.475 0.297,-0.475C0.271,-0.475 0.248,-0.47 0.227,-0.461C0.206,-0.452 0.188,-0.439 0.174,-0.421C0.159,-0.404 0.148,-0.383 0.14,-0.359C0.133,-0.334 0.129,-0.307 0.129,-0.276Z" style="fill-rule:nonzero;"/>
        </g>
        <g transform="matrix(407.126,0,0,407.126,2368.86,517.674)">
            <path d="M0.148,-0.715L0.148,-0.098L0.516,-0.098L0.516,-0L0.043,-0L0.043,-0.715L0.148,-0.715Z" style="fill-rule:nonzero;"/>
        </g>
        <g transform="matrix(407.126,0,0,407.126,2581.28,517.674)">
            <path d="M0.551,-0.183C0.544,-0.152 0.533,-0.124 0.518,-0.1C0.503,-0.075 0.484,-0.055 0.463,-0.038C0.441,-0.021 0.416,-0.008 0.388,0.002C0.361,0.011 0.331,0.015 0.298,0.015C0.271,0.015 0.246,0.012 0.222,0.006C0.198,-0.001 0.176,-0.01 0.156,-0.022C0.136,-0.034 0.118,-0.048 0.102,-0.065C0.086,-0.082 0.073,-0.102 0.062,-0.123C0.05,-0.145 0.042,-0.169 0.036,-0.194C0.03,-0.22 0.028,-0.248 0.028,-0.277C0.028,-0.306 0.03,-0.333 0.036,-0.358C0.042,-0.384 0.05,-0.407 0.061,-0.429C0.072,-0.45 0.086,-0.47 0.101,-0.487C0.117,-0.503 0.135,-0.518 0.155,-0.53C0.174,-0.542 0.196,-0.551 0.22,-0.557C0.243,-0.563 0.269,-0.566 0.295,-0.566C0.335,-0.566 0.37,-0.559 0.402,-0.546C0.434,-0.532 0.461,-0.513 0.484,-0.488C0.506,-0.463 0.524,-0.433 0.536,-0.397C0.548,-0.362 0.554,-0.322 0.554,-0.278C0.554,-0.272 0.554,-0.265 0.554,-0.259C0.553,-0.253 0.553,-0.246 0.552,-0.239L0.131,-0.239C0.134,-0.214 0.14,-0.191 0.149,-0.171C0.158,-0.151 0.17,-0.134 0.184,-0.12C0.199,-0.106 0.216,-0.095 0.236,-0.088C0.255,-0.08 0.277,-0.077 0.301,-0.077C0.338,-0.077 0.368,-0.085 0.393,-0.103C0.418,-0.121 0.437,-0.147 0.45,-0.183L0.551,-0.183ZM0.449,-0.326C0.446,-0.35 0.44,-0.371 0.432,-0.39C0.423,-0.408 0.413,-0.424 0.4,-0.436C0.387,-0.449 0.372,-0.458 0.354,-0.465C0.337,-0.472 0.317,-0.475 0.296,-0.475C0.274,-0.475 0.254,-0.471 0.235,-0.465C0.217,-0.458 0.201,-0.448 0.187,-0.435C0.173,-0.423 0.161,-0.407 0.152,-0.389C0.143,-0.37 0.137,-0.349 0.133,-0.326L0.449,-0.326Z" style="fill-rule:nonzero;"/>
        </g>
        <g transform="matrix(407.126,0,0,407.126,2802.75,517.674)">
            <path d="M0.565,-0.551L0.367,-0L0.21,-0L0.014,-0.551L0.119,-0.551L0.29,-0.063L0.462,-0.551L0.565,-0.551Z" style="fill-rule:nonzero;"/>
        </g>
        <g transform="matrix(407.126,0,0,407.126,3023.11,517.674)">
            <path d="M0.028,-0.276C0.028,-0.305 0.03,-0.332 0.036,-0.358C0.042,-0.383 0.05,-0.407 0.062,-0.429C0.073,-0.45 0.086,-0.469 0.102,-0.486C0.118,-0.503 0.135,-0.518 0.155,-0.53C0.175,-0.542 0.197,-0.551 0.221,-0.557C0.245,-0.563 0.27,-0.566 0.297,-0.566C0.324,-0.566 0.349,-0.563 0.373,-0.557C0.397,-0.551 0.419,-0.542 0.439,-0.53C0.459,-0.518 0.476,-0.503 0.492,-0.486C0.508,-0.469 0.522,-0.45 0.533,-0.429C0.544,-0.407 0.552,-0.383 0.558,-0.358C0.564,-0.332 0.567,-0.305 0.567,-0.276C0.567,-0.247 0.564,-0.219 0.558,-0.194C0.552,-0.168 0.544,-0.144 0.533,-0.123C0.522,-0.101 0.508,-0.082 0.492,-0.065C0.476,-0.048 0.459,-0.034 0.439,-0.022C0.419,-0.01 0.397,-0.001 0.373,0.006C0.349,0.012 0.324,0.015 0.297,0.015C0.27,0.015 0.245,0.012 0.221,0.006C0.197,-0.001 0.175,-0.01 0.155,-0.022C0.135,-0.034 0.118,-0.048 0.102,-0.065C0.086,-0.082 0.073,-0.101 0.062,-0.123C0.05,-0.144 0.042,-0.168 0.036,-0.194C0.03,-0.219 0.028,-0.247 0.028,-0.276ZM0.129,-0.276C0.129,-0.245 0.133,-0.217 0.14,-0.193C0.148,-0.168 0.159,-0.147 0.174,-0.13C0.188,-0.113 0.206,-0.099 0.227,-0.09C0.248,-0.081 0.271,-0.077 0.297,-0.077C0.323,-0.077 0.347,-0.081 0.367,-0.09C0.388,-0.099 0.406,-0.113 0.42,-0.13C0.435,-0.147 0.446,-0.168 0.454,-0.193C0.461,-0.217 0.465,-0.245 0.465,-0.276C0.465,-0.307 0.461,-0.334 0.454,-0.359C0.446,-0.383 0.435,-0.404 0.42,-0.422C0.406,-0.439 0.388,-0.452 0.367,-0.461C0.347,-0.47 0.323,-0.475 0.297,-0.475C0.271,-0.475 0.248,-0.47 0.227,-0.461C0.206,-0.452 0.188,-0.439 0.174,-0.421C0.159,-0.404 0.148,-0.383 0.14,-0.359C0.133,-0.334 0.129,-0.307 0.129,-0.276Z" style="fill-rule:nonzero;"/>
        </g>
        <g transform="matrix(407.126,0,0,407.126,3264.94,517.674)">
            <path d="M0.141,-0L0.04,-0L0.04,-0.551L0.141,-0.551L0.141,-0.376C0.148,-0.403 0.157,-0.428 0.169,-0.449C0.181,-0.471 0.196,-0.489 0.214,-0.505C0.232,-0.52 0.252,-0.531 0.276,-0.539C0.299,-0.547 0.326,-0.551 0.355,-0.551L0.38,-0.551L0.38,-0.455L0.355,-0.455C0.315,-0.455 0.281,-0.451 0.254,-0.444C0.226,-0.436 0.204,-0.425 0.188,-0.41C0.171,-0.395 0.159,-0.376 0.152,-0.353C0.145,-0.331 0.141,-0.304 0.141,-0.273L0.141,-0Z" style="fill-rule:nonzero;"/>
        </g>
        <g transform="matrix(407.126,0,0,407.126,3430.34,517.674)">
            <path d="M0.144,-0.615L0.038,-0.615L0.038,-0.74L0.144,-0.74L0.144,-0.615ZM0.141,-0L0.04,-0L0.04,-0.551L0.141,-0.551L0.141,-0Z" style="fill-rule:nonzero;"/>
        </g>
        <g transform="matrix(407.126,0,0,407.126,3504.13,517.674)">
            <path d="M0.141,-0L0.04,-0L0.04,-0.551L0.141,-0.551L0.141,-0.392C0.148,-0.419 0.158,-0.444 0.17,-0.465C0.183,-0.487 0.198,-0.505 0.215,-0.52C0.233,-0.535 0.252,-0.546 0.274,-0.554C0.296,-0.562 0.32,-0.566 0.346,-0.566C0.377,-0.566 0.405,-0.56 0.43,-0.549C0.455,-0.537 0.476,-0.52 0.493,-0.497C0.511,-0.475 0.524,-0.448 0.533,-0.416C0.542,-0.384 0.547,-0.348 0.547,-0.308L0.547,-0L0.445,-0L0.445,-0.308C0.445,-0.364 0.434,-0.405 0.41,-0.433C0.387,-0.461 0.351,-0.475 0.304,-0.475C0.278,-0.475 0.255,-0.471 0.235,-0.463C0.215,-0.455 0.198,-0.443 0.184,-0.428C0.17,-0.413 0.16,-0.395 0.152,-0.373C0.145,-0.351 0.141,-0.326 0.141,-0.298L0.141,-0Z" style="fill-rule:nonzero;"/>
        </g>
        <g transform="matrix(407.126,0,0,407.126,3741.89,517.674)">
            <rect x="0.043" y="-0.135" width="0.128" height="0.135" style="fill-rule:nonzero;"/>
        </g>
    </g>
</svg>
